HIERARCHY
ROOT Hips
{
 OFFSET 0.000000 0.000000 0.000000
 CHANNELS 6 Xposition Yposition Zposition Yrotation Xrotation Zrotation
 JOINT Chest
 {
  OFFSET 0.000000 9.585900 0.002600
  CHANNELS 3 Yrotation Xrotation Zrotation
  JOINT Chest2
  {
   OFFSET 0.000000 9.601200 -0.005300
   CHANNELS 3 Yrotation Xrotation Zrotation
   JOINT Chest3
   {
    OFFSET 0.000000 9.561800 0.000000
    CHANNELS 3 Yrotation Xrotation Zrotation
    JOINT Chest4
    {
     OFFSET 0.000000 9.552100 0.000000
     CHANNELS 3 Yrotation Xrotation Zrotation
     JOINT Neck
     {
      OFFSET 0.000000 14.453000 0.000000
      CHANNELS 3 Yrotation Xrotation Zrotation
      JOINT Head
      {
       OFFSET 0.000000 8.936500 -0.011300
       CHANNELS 3 Yrotation Xrotation Zrotation
       End Site
       {
        OFFSET 0.000000 17.073600 -0.006000
       }
      }
     }
     JOINT RightCollar
     {
      OFFSET -2.921100 9.558500 0.000000
      CHANNELS 3 Yrotation Xrotation Zrotation
      JOINT RightShoulder
      {
       OFFSET -13.519700 0.000000 0.000000
       CHANNELS 3 Yrotation Xrotation Zrotation
       JOINT RightElbow
       {
        OFFSET 0.000000 -29.696600 0.000000
        CHANNELS 3 Yrotation Xrotation Zrotation
        JOINT RightWrist
        {
         OFFSET 0.000000 -24.004700 0.000000
         CHANNELS 3 Yrotation Xrotation Zrotation
         End Site
         {
          OFFSET 0.000000 -17.728500 0.000000
         }
        }
       }
      }
     }
     JOINT LeftCollar
     {
      OFFSET 2.921100 9.558500 0.000000
      CHANNELS 3 Yrotation Xrotation Zrotation
      JOINT LeftShoulder
      {
       OFFSET 13.519700 0.000000 0.000000
       CHANNELS 3 Yrotation Xrotation Zrotation
       JOINT LeftElbow
       {
        OFFSET 0.000000 -29.696600 0.000000
        CHANNELS 3 Yrotation Xrotation Zrotation
        JOINT LeftWrist
        {
         OFFSET 0.000000 -24.004700 0.000000
         CHANNELS 3 Yrotation Xrotation Zrotation
         End Site
         {
          OFFSET 0.000000 -17.728500 0.000000
         }
        }
       }
      }
     }
    }
   }
  }
 }
 JOINT RightHip
 {
  OFFSET -7.771700 -0.012900 -0.001300
  CHANNELS 3 Yrotation Xrotation Zrotation
  JOINT RightKnee
  {
   OFFSET 0.000000 -40.869800 0.001200
   CHANNELS 3 Yrotation Xrotation Zrotation
   JOINT RightAnkle
   {
    OFFSET 0.000000 -39.717900 0.002100
    CHANNELS 3 Yrotation Xrotation Zrotation
    JOINT RightToe
    {
     OFFSET 0.000000 -4.965400 11.033500
     CHANNELS 3 Yrotation Xrotation Zrotation
     End Site
     {
      OFFSET 0.000000 -1.423100 5.872300
     }
    }
   }
  }
 }
 JOINT LeftHip
 {
  OFFSET 7.771700 -0.012900 -0.001300
  CHANNELS 3 Yrotation Xrotation Zrotation
  JOINT LeftKnee
  {
   OFFSET 0.000000 -40.869800 0.001200
   CHANNELS 3 Yrotation Xrotation Zrotation
   JOINT LeftAnkle
   {
    OFFSET 0.000000 -39.717900 0.002100
    CHANNELS 3 Yrotation Xrotation Zrotation
    JOINT LeftToe
    {
     OFFSET 0.000000 -4.965400 11.033500
     CHANNELS 3 Yrotation Xrotation Zrotation
     End Site
     {
      OFFSET 0.000000 -1.423100 5.872300
     }
    }
   }
  }
 }
}
MOTION
Frames: 5
Frame Time: 0.008333
-21.960898 61.000355 28.871420 163.963275 -16.480979 2.094942 0.429159 11.901936 0.241428 0.044984 0.813347 0.068906 0.072858 1.456676 0.082221 0.599634 10.851043 0.664376 1.605726 18.320922 4.427252 0.628421 -6.435794 4.546359 4.008404 2.872718 -3.276688 -1.872249 -17.385718 -15.004322 -71.082388 -69.557797 89.576721 -2.033266 2.117132 -18.545153 -8.753152 -4.268022 -5.573928 8.082213 -21.251145 12.982475 96.147366 -68.089779 -131.618712 -3.751528 -0.024689 8.769669 -3.528280 -52.754189 -0.922132 -20.493204 70.308133 -15.386710 1.055820 -4.455506 -4.034054 0.085832 -0.348164 0.013906 10.353072 -50.841609 -1.930636 29.359238 71.082159 27.717873 -18.946151 -15.574547 1.018064 0.136441 0.381682 0.149542
-21.965610 60.997657 28.874975 163.935454 -16.504450 2.100585 0.459717 11.889551 0.266289 0.038311 0.810222 0.068312 0.071398 1.454937 0.084061 0.590318 10.844887 0.677889 1.561683 18.269758 4.542356 0.606841 -6.404941 4.533755 4.059693 2.844146 -3.273404 -1.856396 -17.559488 -15.039235 -71.336023 -69.540630 89.803343 -2.053574 2.094170 -18.535444 -8.831299 -4.453600 -5.540719 7.790517 -21.772263 13.068788 97.151299 -67.464346 -133.138554 -3.705385 -0.216448 8.682040 -3.502286 -52.732956 -0.925181 -20.476603 70.309961 -15.368455 1.057484 -4.487910 -4.029530 0.077126 -0.314360 0.016673 10.380536 -50.819678 -1.911082 29.320720 71.087387 27.661978 -18.983481 -15.544769 1.041813 0.041323 0.352541 0.117314
-21.966622 60.995607 28.874744 163.965541 -16.549717 2.075592 0.429179 11.893667 0.302773 0.039372 0.830004 0.058201 0.067915 1.433435 0.095518 0.582890 10.839434 0.692354 1.527306 18.235179 4.611739 0.573133 -6.408253 4.568630 4.105403 2.817471 -3.268574 -1.841976 -17.719635 -15.044384 -71.570874 -69.521788 90.011147 -2.074412 2.070794 -18.521933 -8.901511 -4.633378 -5.503599 7.493293 -22.290281 13.128165 97.902102 -66.831601 -134.431657 -3.660506 -0.404417 8.545710 -3.556356 -52.690141 -0.902045 -20.465929 70.311651 -15.354659 1.029432 -4.445894 -4.039548 0.099850 -0.357813 0.027220 10.329584 -50.779559 -1.881106 29.347442 71.090968 27.658759 -18.792158 -15.589361 1.020382 0.143895 0.381963 0.130934
-21.958801 60.992639 28.877014 163.961477 -16.584340 2.005108 0.435608 11.848172 0.409072 0.047432 0.889885 0.032446 0.062745 1.410558 0.107016 0.578076 10.834765 0.707788 1.499176 18.209934 4.657974 0.532643 -6.433987 4.625048 4.128998 2.830306 -3.283165 -1.825065 -17.901740 -14.997609 -71.781688 -69.505427 90.195083 -2.097271 2.046684 -18.507095 -8.975645 -4.805371 -5.461712 7.200318 -22.808684 13.159759 98.390003 -66.192681 -135.497281 -3.612009 -0.583926 8.371482 -3.645026 -52.653859 -0.789206 -20.463960 70.314689 -15.350113 1.044283 -4.421163 -4.032132 0.081192 -0.382466 0.019972 10.264347 -50.759602 -1.759337 29.337029 71.106470 27.617554 -18.551153 -15.623087 0.987625 0.298623 0.397563 0.166717
-21.960945 60.989538 28.876349 163.945651 -16.610856 1.998884 0.445265 11.842758 0.431687 0.047585 0.882084 0.038857 0.059747 1.404781 0.108563 0.576594 10.843562 0.713341 1.473079 18.169503 4.711668 0.493313 -6.461267 4.678675 4.150484 2.833631 -3.287317 -1.814924 -18.068913 -14.921191 -71.960066 -69.491882 90.347110 -2.122391 2.023447 -18.497394 -9.055705 -4.983524 -5.403984 6.906305 -23.325688 13.168621 98.617642 -65.552017 -136.330634 -3.558721 -0.747030 8.169979 -3.629213 -52.631198 -0.802012 -20.435489 70.325166 -15.305654 1.061570 -4.414754 -4.029595 0.062775 -0.388472 0.014342 10.273043 -50.735352 -1.728305 29.356122 71.111456 27.614292 -18.460109 -15.629569 0.982073 0.321825 0.396344 0.175031
